<svg width="60" height="18" viewBox="0 0 60 18" fill="none" xmlns="http://www.w3.org/2000/svg">
<path fill-rule="evenodd" clip-rule="evenodd" d="M24.3823 15.4242C24.3823 14.0012 23.2646 12.8477 21.8859 12.8477C20.5072 12.8477 19.3896 14.0012 19.3896 15.4242C19.3896 16.8472 20.5072 18.0008 21.8859 18.0008C23.2646 18.0008 24.3823 16.8472 24.3823 15.4242Z" fill="#22294F" fill-opacity="0.6"/>
<path d="M17.466 2.07961C16.4154 2.07961 15.8901 2.66986 15.8901 3.85036V4.50925H18.8225V6.56826H15.9499V15.422H13.4563V3.80918C13.4563 2.6424 13.7888 1.71585 14.4537 1.02951C15.1187 0.343169 16.0629 0 17.2865 0C18.2307 0 18.9754 0.199038 19.5207 0.597114L18.8225 2.53259C18.4235 2.2306 17.9714 2.07961 17.466 2.07961Z" fill="#22294F" fill-opacity="0.6"/>
<path fill-rule="evenodd" clip-rule="evenodd" d="M11.2909 15.422H8.91706V14.0013C8.50479 14.5229 7.99277 14.9141 7.38101 15.1749C6.78255 15.4358 6.11759 15.5662 5.38614 15.5662C4.34881 15.5662 3.41787 15.3328 2.59333 14.8661C1.78208 14.3994 1.14372 13.7405 0.678255 12.8894C0.226085 12.0384 0 11.0501 0 9.92446C0 8.79886 0.226085 7.8174 0.678255 6.98007C1.14372 6.129 1.78208 5.47012 2.59333 5.00341C3.41787 4.5367 4.34881 4.30334 5.38614 4.30334C6.0777 4.30334 6.7094 4.42689 7.28127 4.67397C7.86643 4.92105 8.37179 5.28481 8.79737 5.76525V4.42689H11.2909V15.422ZM5.66542 13.363C6.58306 13.363 7.34111 13.0473 7.93957 12.4159C8.53803 11.7844 8.83726 10.954 8.83726 9.92446C8.83726 8.89495 8.53803 8.06448 7.93957 7.43305C7.34111 6.80162 6.58306 6.4859 5.66542 6.4859C4.74778 6.4859 3.98974 6.80162 3.39127 7.43305C2.80611 8.06448 2.51353 8.89495 2.51353 9.92446C2.51353 10.954 2.80611 11.7844 3.39127 12.4159C3.98974 13.0473 4.74778 13.363 5.66542 13.363Z" fill="#22294F" fill-opacity="0.6"/>
<path d="M21.8256 3.85036C21.8256 2.66986 22.3509 2.07961 23.4015 2.07961C23.9069 2.07961 24.359 2.2306 24.758 2.53259L25.4562 0.597114C24.911 0.199038 24.1662 0 23.222 0C21.9985 0 21.0542 0.343169 20.3893 1.02951C19.7243 1.71585 19.3918 2.6424 19.3918 3.80918V12.3142C20.0687 11.7352 20.9376 11.3871 21.8854 11.387V6.56826H24.758V4.50925H21.8256V3.85036Z" fill="#22294F" fill-opacity="0.6"/>
<path fill-rule="evenodd" clip-rule="evenodd" d="M35.5847 15.422H33.2108V14.0013C32.7985 14.5229 32.2865 14.9141 31.6748 15.1749C31.0763 15.4358 30.4113 15.5662 29.6799 15.5662C28.6426 15.5662 27.7116 15.3328 26.8871 14.8661C26.0758 14.3994 25.4375 13.7405 24.972 12.8894C24.5198 12.0384 24.2937 11.0501 24.2937 9.92446C24.2937 8.79886 24.5198 7.8174 24.972 6.98007C25.4375 6.129 26.0758 5.47012 26.8871 5.00341C27.7116 4.5367 28.6426 4.30334 29.6799 4.30334C30.3714 4.30334 31.0031 4.42689 31.575 4.67397C32.1602 4.92105 32.6655 5.28481 33.0911 5.76525V4.42689H35.5847V15.422ZM29.9592 13.363C30.8768 13.363 31.6349 13.0473 32.2333 12.4159C32.8318 11.7844 33.131 10.954 33.131 9.92446C33.131 8.89495 32.8318 8.06448 32.2333 7.43305C31.6349 6.80162 30.8768 6.4859 29.9592 6.4859C29.0415 6.4859 28.2835 6.80162 27.685 7.43305C27.0999 8.06448 26.8073 8.89495 26.8073 9.92446C26.8073 10.954 27.0999 11.7844 27.685 12.4159C28.2835 13.0473 29.0415 13.363 29.9592 13.363Z" fill="#22294F" fill-opacity="0.6"/>
<path d="M43.9142 4.30334C42.1055 4.30334 40.8421 4.87987 40.124 6.03292V4.42689H37.7501V15.422H40.2436V10.0892C40.2436 8.99104 40.5163 8.15371 41.0615 7.57718C41.6068 6.98693 42.3649 6.6918 43.3357 6.6918C43.5086 6.6918 43.7014 6.71239 43.9142 6.75357V4.30334Z" fill="#22294F" fill-opacity="0.6"/>
<path d="M50.917 14.8249C50.6244 15.072 50.2653 15.2573 49.8397 15.3809C49.4275 15.5044 48.9886 15.5662 48.5231 15.5662C47.3528 15.5662 46.4485 15.2504 45.8101 14.619C45.1717 13.9876 44.8526 13.0679 44.8526 11.8599V1.99725H47.3462V4.50925H50.1988V6.56826H47.3462V11.7982C47.3462 12.3335 47.4725 12.7453 47.7252 13.0336C47.9912 13.3081 48.3569 13.4454 48.8224 13.4454C49.3809 13.4454 49.8464 13.2944 50.2188 12.9924L50.7004 14.2565L51.6216 12.3747C52.1003 12.7041 52.6722 12.9718 53.3371 13.1777C54.0154 13.3699 54.6804 13.466 55.332 13.466C56.8215 13.466 57.5663 13.061 57.5663 12.2511C57.5663 11.8668 57.3734 11.5991 56.9878 11.4481C56.6154 11.2971 56.0103 11.153 55.1724 11.0157C54.2947 10.8785 53.5765 10.7206 53.018 10.5422C52.4727 10.3637 51.9939 10.0549 51.5817 9.61561C51.1827 9.16262 50.9832 8.53805 50.9832 7.7419C50.9832 6.69867 51.4021 5.8682 52.24 5.25049C53.0911 4.61906 54.2348 4.30334 55.6711 4.30334C56.4026 4.30334 57.134 4.39257 57.8655 4.57102C58.5969 4.73574 59.1954 4.96223 59.6609 5.25049L58.7033 7.20656C57.799 6.65749 56.7816 6.38295 55.6512 6.38295C54.9197 6.38295 54.3612 6.49963 53.9755 6.73298C53.6031 6.95261 53.4169 7.24774 53.4169 7.61836C53.4169 8.03016 53.6164 8.32529 54.0154 8.50374C54.4277 8.66846 55.0594 8.82632 55.9105 8.97731C56.7617 9.11458 57.4599 9.27244 58.0051 9.45088C58.5504 9.62933 59.0159 9.93132 59.4015 10.3569C59.8005 10.7824 60 11.3864 60 12.1688C60 13.1983 59.5678 14.0219 58.7033 14.6396C57.8389 15.2573 56.6619 15.5662 55.1724 15.5662C54.308 15.5662 53.4635 15.4495 52.6389 15.2161C51.8628 14.9965 51.2339 14.7221 50.7524 14.393L50.917 14.8249Z" fill="#22294F" fill-opacity="0.6"/>
</svg>
