<svg width="16" height="12" viewBox="0 0 16 12" fill="none" xmlns="http://www.w3.org/2000/svg">
<path d="M2.20627 4.71427L0.424561 2.93027M5.59599 2.5257L4.87027 0.177124M13.2486 4.71427L15.0303 2.93141M9.85885 2.5257L10.5846 0.177124M7.72742 2.2137C2.94228 2.2137 0.933132 6.51769 0.933132 6.60684C0.933132 6.69598 2.94228 10.9988 7.72742 10.9988C12.5126 10.9988 14.5217 6.69598 14.5217 6.60684C14.5217 6.51769 12.5126 2.2137 7.72742 2.2137Z" stroke="#22294F" stroke-opacity="0.6" stroke-width="1.2" stroke-linejoin="round"/>
<path d="M5.79284 6.16292C5.73097 6.41845 5.72045 6.68373 5.76188 6.94335C5.80331 7.20298 5.89587 7.4518 6.0342 7.67539C6.17252 7.89897 6.35386 8.09287 6.5677 8.24584C6.78153 8.3988 7.02361 8.5078 7.27988 8.5665C7.53616 8.6252 7.80154 8.63243 8.06064 8.58779C8.31974 8.54314 8.56739 8.4475 8.78924 8.30641C9.01109 8.16533 9.20273 7.9816 9.35304 7.76589C9.50334 7.55017 9.60932 7.30677 9.66484 7.04978C9.72671 6.79425 9.73724 6.52898 9.69581 6.26935C9.65438 6.00972 9.56181 5.7609 9.42349 5.53731C9.28516 5.31373 9.10382 5.11983 8.88999 4.96687C8.67615 4.8139 8.43408 4.70491 8.1778 4.64621C7.92152 4.58751 7.65614 4.58027 7.39705 4.62492C7.13795 4.66956 6.8903 4.7652 6.66844 4.90629C6.44659 5.04738 6.25496 5.2311 6.10465 5.44682C5.95435 5.66253 5.84836 5.90594 5.79284 6.16292Z" stroke="#22294F" stroke-opacity="0.6" stroke-width="1.2" stroke-linecap="round" stroke-linejoin="round"/>
</svg>
