<svg width="24" height="24" viewBox="0 0 24 24" fill="none" xmlns="http://www.w3.org/2000/svg">
<path fill-rule="evenodd" clip-rule="evenodd" d="M12.111 1.4175C11.1479 2.11258 10.3636 3.02647 9.82271 4.08394C9.28185 5.14142 8.99988 6.31223 9.00001 7.5V7.548C9.00601 8.448 9.17101 9.312 9.46651 10.1115C9.70651 10.7535 9.16051 11.4765 8.55151 11.1615C7.41879 10.5749 6.4544 9.70913 5.74951 8.646C5.44651 8.19 4.77751 8.1015 4.47751 8.559C3.48825 10.0651 2.97387 11.8335 3.00096 13.6352C3.02804 15.437 3.59535 17.1891 4.62944 18.6648C5.66353 20.1405 7.11679 21.2718 8.80107 21.9123C10.4854 22.5527 12.3231 22.6729 14.0765 22.2571C15.8298 21.8414 17.4179 20.9089 18.6353 19.5804C19.8527 18.2519 20.6433 16.5885 20.9047 14.8056C21.1661 13.0227 20.8863 11.2024 20.1016 9.58033C19.3168 7.95825 18.0632 6.60908 16.503 5.7075L16.497 5.697C14.9911 4.82956 13.8347 3.4642 13.227 1.836C13.053 1.371 12.5115 1.1295 12.111 1.4175ZM13.281 10.683C13.9885 10.8928 14.6335 11.2733 15.1593 11.791C15.6851 12.3087 16.0756 12.9477 16.2964 13.6518C16.5172 14.3559 16.5615 15.1035 16.4255 15.8288C16.2894 16.554 15.9771 17.2347 15.5161 17.8109C15.0552 18.3871 14.4596 18.8411 13.7819 19.133C13.1042 19.4249 12.3651 19.5458 11.6297 19.4849C10.8943 19.424 10.1852 19.1832 9.5647 18.7839C8.94423 18.3845 8.43145 17.8387 8.07151 17.1945C7.76401 16.647 8.39401 16.1535 9.00151 16.3095C9.92125 16.5467 10.8841 16.5621 11.811 16.3545C12.243 16.257 12.4305 15.7755 12.2925 15.3555C12.098 14.7557 11.9993 14.129 12 13.4985C12 12.621 12.189 11.7885 12.5265 11.037C12.5879 10.8965 12.6983 10.7832 12.8372 10.7183C12.9761 10.6534 13.1339 10.6399 13.281 10.683Z" fill="#22294F"/>
</svg>
