<svg width="14" height="14" viewBox="0 0 14 14" fill="none" xmlns="http://www.w3.org/2000/svg">
<path fill-rule="evenodd" clip-rule="evenodd" d="M7.06479 0.827223C6.50296 1.23269 6.04546 1.76579 5.72995 2.38265C5.41445 2.99951 5.24996 3.68249 5.25004 4.37535V4.40335C5.25354 4.92835 5.34979 5.43235 5.52217 5.89872C5.66217 6.27322 5.34367 6.69497 4.98842 6.51122C4.32766 6.16905 3.7651 5.66401 3.35392 5.04385C3.17717 4.77785 2.78692 4.72622 2.61192 4.9931C2.03485 5.87167 1.73479 6.90323 1.75059 7.95424C1.76639 9.00526 2.09733 10.0273 2.70054 10.8882C3.30376 11.749 4.15149 12.4089 5.134 12.7825C6.1165 13.1561 7.18852 13.2262 8.2113 12.9837C9.23407 12.7412 10.1605 12.1972 10.8707 11.4222C11.5808 10.6473 12.042 9.67697 12.1945 8.63695C12.347 7.59693 12.1837 6.53509 11.726 5.58887C11.2682 4.64266 10.5369 3.85565 9.62679 3.32972L9.62329 3.3236C8.74482 2.8176 8.07027 2.02113 7.71579 1.07135C7.61429 0.800098 7.29842 0.659223 7.06479 0.827223ZM7.74729 6.2321C8.15997 6.35448 8.53624 6.57644 8.84297 6.87843C9.1497 7.18042 9.37749 7.55319 9.50628 7.96391C9.63507 8.37464 9.66092 8.81073 9.58155 9.23379C9.50218 9.65685 9.32003 10.0539 9.05112 10.39C8.78222 10.7261 8.43481 10.991 8.03947 11.1613C7.64414 11.3316 7.21301 11.402 6.78404 11.3665C6.35506 11.331 5.94139 11.1906 5.57945 10.9576C5.2175 10.7246 4.91838 10.4062 4.70842 10.0305C4.52904 9.7111 4.89654 9.42322 5.25092 9.51422C5.78743 9.65257 6.34912 9.66157 6.88979 9.54047C7.14179 9.4836 7.25117 9.20272 7.17067 8.95772C7.05723 8.60785 6.99964 8.24228 7.00004 7.87447C7.00004 7.3626 7.11029 6.87697 7.30717 6.4386C7.34295 6.35664 7.40739 6.29055 7.48841 6.25269C7.56943 6.21484 7.66147 6.20695 7.74729 6.2321Z" fill="#FF5E61"/>
</svg>
