<svg width="14" height="14" viewBox="0 0 14 14" stroke="currentColor" fill="none" xmlns="http://www.w3.org/2000/svg">
<path fill-rule="evenodd" clip-rule="evenodd" d="M7.06475 0.826888C6.50291 1.23235 6.04541 1.76546 5.72991 2.38232C5.41441 2.99918 5.24992 3.68215 5.25 4.37501V4.40301C5.2535 4.92801 5.34975 5.43201 5.52212 5.89839C5.66212 6.27289 5.34362 6.69464 4.98837 6.51089C4.32762 6.16872 3.76506 5.66368 3.35387 5.04351C3.17712 4.77751 2.78687 4.72589 2.61187 4.99276C2.03481 5.87133 1.73475 6.90289 1.75055 7.95391C1.76635 9.00493 2.09728 10.027 2.7005 10.8878C3.30372 11.7486 4.15145 12.4086 5.13395 12.7822C6.11645 13.1558 7.18848 13.2259 8.21126 12.9833C9.23403 12.7408 10.1605 12.1969 10.8706 11.4219C11.5808 10.6469 12.0419 9.67663 12.1944 8.63661C12.3469 7.5966 12.1837 6.53475 11.7259 5.58854C11.2681 4.64233 10.5369 3.85531 9.62675 3.32939L9.62325 3.32326C8.74478 2.81726 8.07023 2.0208 7.71575 1.07101C7.61425 0.799763 7.29837 0.658888 7.06475 0.826888ZM7.74725 6.23176C8.15993 6.35415 8.5362 6.5761 8.84293 6.87809C9.14966 7.18009 9.37744 7.55285 9.50624 7.96358C9.63503 8.3743 9.66088 8.81039 9.58151 9.23345C9.50214 9.65652 9.31999 10.0536 9.05108 10.3897C8.78218 10.7258 8.43476 10.9907 8.03943 11.1609C7.6441 11.3312 7.21297 11.4017 6.78399 11.3662C6.35502 11.3307 5.94135 11.1902 5.5794 10.9573C5.21746 10.7243 4.91834 10.4059 4.70837 10.0301C4.529 9.71076 4.8965 9.42289 5.25087 9.51389C5.78739 9.65224 6.34908 9.66123 6.88975 9.54014C7.14175 9.48326 7.25112 9.20239 7.17062 8.95739C7.05718 8.60751 6.9996 8.24194 7 7.87414C7 7.36226 7.11025 6.87664 7.30712 6.43826C7.34291 6.35631 7.40735 6.29021 7.48837 6.25236C7.56939 6.21451 7.66143 6.20662 7.74725 6.23176Z" fill="currentColor"/>
</svg>
