<svg width="20" height="20" viewBox="0 0 20 20" fill="none" xmlns="http://www.w3.org/2000/svg">
<g clip-path="url(#clip0_13720_17477)">
<path d="M14.1729 1.66602C16.471 1.66602 18.3348 3.529 18.335 5.82715V14.1709C18.335 16.4691 16.4711 18.333 14.1729 18.333H5.8291C3.53095 18.3329 1.66797 16.4691 1.66797 14.1709V5.82715C1.66809 3.52907 3.53102 1.66613 5.8291 1.66602H14.1729ZM10.1045 3.6582C6.59468 3.65831 3.63208 6.37423 3.63184 9.98438C3.63184 11.496 3.91184 12.5397 4.1582 13.4766C4.36503 14.237 4.54785 14.9336 4.54785 15.7578C4.63607 16.8559 6.6581 16.2138 7.29688 15.3926C8.30657 16.1225 8.88789 16.3056 10.1377 16.3057C13.5934 16.2872 16.3817 13.4742 16.3701 10.0186C16.3701 6.5085 13.6176 3.6582 10.1045 3.6582ZM10.1895 6.7793V6.78223C11.9609 6.88369 13.3251 8.38517 13.2559 10.1582C13.1369 11.9274 11.6236 13.2755 9.85254 13.1904C9.29804 13.146 8.76433 12.9568 8.30664 12.6406C8.03002 12.9172 7.58673 13.2754 7.41016 13.2334C7.04213 13.1361 6.61022 11.2655 6.85352 9.72949C7.14853 7.87423 8.48024 6.6913 10.1895 6.7793Z" fill="#22294F"/>
</g>
<defs>
<clipPath id="clip0_13720_17477">
<rect width="16.6667" height="16.6667" fill="white" transform="translate(1.66797 1.66602)"/>
</clipPath>
</defs>
</svg>
