<svg width="20" height="20" viewBox="0 0 20 20" fill="none" xmlns="http://www.w3.org/2000/svg">
<g clip-path="url(#clip0_13720_17492)">
<path d="M15.8486 1.75195C17.1748 1.75214 18.2499 2.83308 18.25 4.16602V15.834C18.2499 17.167 17.1748 18.2479 15.8486 18.248H4.15625C2.82994 18.248 1.75397 17.1671 1.75391 15.834V4.16602C1.75397 2.83292 2.82999 1.75195 4.15625 1.75195H15.8486ZM13.127 10.5654C12.846 10.2137 12.3347 10.1574 11.9844 10.4395C11.977 10.4455 11.2113 11.0353 9.95215 11.0361C8.69387 11.0353 7.91267 10.4462 7.9043 10.4395C7.55387 10.1571 7.0417 10.2133 6.76074 10.5654C6.47977 10.9176 6.5364 11.4324 6.88672 11.7148C6.9252 11.7459 7.67242 12.3309 8.90332 12.5703L7.1875 14.3721C6.87586 14.6971 6.88571 15.215 7.20898 15.5283C7.36674 15.681 7.57038 15.7568 7.77344 15.7568C7.98634 15.7568 8.19893 15.673 8.3584 15.5068L9.95215 13.8008L11.707 15.5176C12.025 15.8366 12.5401 15.836 12.8574 15.5166C13.1742 15.1972 13.1738 14.6802 12.8564 14.3613L11.0488 12.5605C12.2461 12.3154 12.964 11.7454 13.002 11.7148C13.3521 11.4324 13.4079 10.9175 13.127 10.5654ZM9.99316 4.15625C8.34146 4.15625 7.00211 5.50202 7.00195 7.16211C7.00195 8.82238 8.34137 10.1689 9.99316 10.1689C11.6449 10.1689 12.9834 8.82233 12.9834 7.16211C12.9832 5.50207 11.6448 4.15634 9.99316 4.15625ZM9.99316 5.91992C10.6758 5.92001 11.2293 6.47602 11.2295 7.16211C11.2295 7.84835 10.6759 8.40519 9.99316 8.40527C9.31037 8.40527 8.75684 7.84841 8.75684 7.16211C8.75701 6.47596 9.31048 5.91992 9.99316 5.91992Z" fill="#22294F"/>
</g>
<defs>
<clipPath id="clip0_13720_17492">
<rect width="16.6667" height="16.6667" fill="white" transform="translate(1.66797 1.66602)"/>
</clipPath>
</defs>
</svg>
