<svg width="20" height="20" viewBox="0 0 20 20" fill="none" xmlns="http://www.w3.org/2000/svg">
<path d="M14.3516 1.16797C16.7893 1.1681 18.7656 3.14429 18.7656 5.58203V14.168C18.7656 16.6058 16.7893 18.5819 14.3516 18.582H5.76562C3.3278 18.582 1.35156 16.6058 1.35156 14.168V5.58203C1.35161 3.14423 3.32782 1.16801 5.76562 1.16797H14.3516ZM4.94824 5.83691V14.1699H7.03613V11.459H10.8848L12.7109 14.1699H15.0488L13.0361 11.4463C13.7783 11.3363 14.1119 11.1082 14.3867 10.7334C14.6614 10.3585 14.7988 9.75938 14.7988 8.95996V8.33496C14.7988 7.86061 14.7487 7.48556 14.6611 7.19824C14.5735 6.91091 14.4237 6.66101 14.2109 6.43652C13.9863 6.22403 13.736 6.07389 13.4355 5.97363C13.1353 5.88616 12.7597 5.83691 12.2979 5.83691H4.94824ZM9.99902 1.66797C9.99902 2.83376 10.2386 3.94368 10.6709 4.95117H12.2988C12.8212 4.95122 13.2835 5.00741 13.6836 5.12402L13.7002 5.12793L13.7148 5.13379C14.1353 5.27414 14.4988 5.48976 14.8184 5.79199L14.8525 5.82617C15.1525 6.14273 15.3764 6.51125 15.5068 6.93848C15.6276 7.33471 15.6826 7.80265 15.6826 8.33301V8.95801C15.6826 9.16221 15.6751 9.36458 15.6572 9.5625C16.4969 9.84688 17.3963 10.001 18.332 10.001V5.70801C18.3318 3.47678 16.5224 1.66797 14.291 1.66797H9.99902ZM11.96 7.67383C12.2475 7.67383 12.4484 7.72399 12.5488 7.81152C12.649 7.89911 12.7109 8.06178 12.7109 8.29883V8.99805C12.7109 9.24767 12.649 9.41042 12.5488 9.49805C12.4484 9.58558 12.2475 9.62207 11.96 9.62207H7.03613V7.67383H11.96Z" fill="#22294F"/>
</svg>
