<svg xmlns="http://www.w3.org/2000/svg" width="0" height="0" style="position:absolute;width:0;height:0;overflow:hidden" aria-hidden="true">

  <!-- plus 16×16 -->
  <symbol id="icon-plus" viewBox="0 0 16 16">
    <path fill="currentColor" fill-rule="evenodd" d="M7.25 2.5h1.5v4.75h4.75v1.5H8.75v4.75h-1.5V8.75H2.5v-1.5h4.75z" />
  </symbol>

  <!-- burger 16×16 -->
  <symbol id="icon-burger" viewBox="0 0 16 16">
    <rect x="1.5" y="4" width="13" height="2" fill="currentColor" />
    <rect x="1.5" y="10" width="13" height="2" fill="currentColor" />
  </symbol>

  <!-- search 16×16 -->
  <symbol id="icon-search" viewBox="0 0 16 16" fill="none" stroke="currentColor" stroke-width="1.5" stroke-linecap="round">
    <circle cx="7" cy="7" r="4.5" />
    <line x1="10.5" y1="10.5" x2="14" y2="14" />
  </symbol>

  <!-- eye 16×16 -->
  <symbol id="icon-eye" viewBox="0 0 16 16" fill="none" stroke="currentColor" stroke-width="1.5" stroke-linecap="round" stroke-linejoin="round">
    <path d="M1.5 8s2.4-4.5 6.5-4.5S14.5 8 14.5 8 12.1 12.5 8 12.5 1.5 8 1.5 8z" />
    <circle cx="8" cy="8" r="2" />
  </symbol>

  <!-- chevron-down 16×16 -->
  <symbol id="icon-chevron-down" viewBox="0 0 16 16" fill="none" stroke="currentColor" stroke-width="1.5" stroke-linecap="round" stroke-linejoin="round">
    <path d="m4 6 4 4 4-4" />
  </symbol>

  <!-- chevron-left 16×16 -->
  <symbol id="icon-chevron-left" viewBox="0 0 16 16" fill="none" stroke="currentColor" stroke-width="1.5" stroke-linecap="round" stroke-linejoin="round">
    <path d="m10 4-4 4 4 4" />
  </symbol>

  <!-- chevron-right 16×16 -->
  <symbol id="icon-chevron-right" viewBox="0 0 16 16" fill="none" stroke="currentColor" stroke-width="1.5" stroke-linecap="round" stroke-linejoin="round">
    <path d="m6 4 4 4-4 4" />
  </symbol>

  <!-- user 16×16 -->
  <symbol id="icon-user" viewBox="0 0 16 16">
    <path fill="currentColor" d="M8 8.5a3.25 3.25 0 1 0 0-6.5 3.25 3.25 0 0 0 0 6.5Zm-5 5.5c0-2.76 2.24-4.5 5-4.5s5 1.74 5 4.5z" />
  </symbol>

  <!-- fire 11×13 -->
  <symbol id="icon-fire" viewBox="0 0 11 13">
    <path fill="currentColor" fill-rule="evenodd" clip-rule="evenodd" d="M5.31479 0.0726456C4.75296 0.478109 4.29546 1.01121 3.97995 1.62807C3.66445 2.24493 3.49996 2.92791 3.50004 3.62077V3.64877C3.50354 4.17377 3.59979 4.67777 3.77217 5.14415C3.91217 5.51865 3.59367 5.9404 3.23842 5.75665C2.57766 5.41448 2.0151 4.90943 1.60392 4.28927C1.42717 4.02327 1.03692 3.97165 0.861916 4.23852C0.284847 5.11709 -0.015208 6.14865 0.000593486 7.19967C0.0163949 8.25068 0.347326 9.27276 0.950545 10.1336C1.55376 10.9944 2.4015 11.6543 3.384 12.0279C4.3665 12.4015 5.43852 12.4716 6.4613 12.2291C7.48407 11.9866 8.4105 11.4426 9.12065 10.6677C9.8308 9.89269 10.292 8.92239 10.4445 7.88237C10.597 6.84236 10.4337 5.78051 9.97596 4.8343C9.51817 3.88808 8.78689 3.10107 7.87679 2.57515L7.87329 2.56902C6.99482 2.06302 6.32027 1.26655 5.96579 0.316771C5.86429 0.0455206 5.54842 -0.0953544 5.31479 0.0726456ZM5.99729 5.47752C6.40997 5.5999 6.78624 5.82186 7.09297 6.12385C7.3997 6.42584 7.62749 6.79861 7.75628 7.20933C7.88507 7.62006 7.91092 8.05615 7.83155 8.47921C7.75218 8.90228 7.57003 9.29934 7.30112 9.63545C7.03222 9.97157 6.68481 10.2364 6.28947 10.4067C5.89414 10.577 5.46301 10.6475 5.03404 10.6119C4.60506 10.5764 4.19139 10.436 3.82945 10.203C3.4675 9.97004 3.16838 9.65166 2.95842 9.2759C2.77904 8.95652 3.14654 8.66865 3.50092 8.75965C4.03743 8.89799 4.59912 8.90699 5.13979 8.7859C5.39179 8.72902 5.50117 8.44815 5.42067 8.20315C5.30723 7.85327 5.24964 7.4877 5.25004 7.1199C5.25004 6.60802 5.36029 6.1224 5.55717 5.68402C5.59295 5.60206 5.65739 5.53597 5.73841 5.49812C5.81943 5.46026 5.91147 5.45238 5.99729 5.47752Z" />
  </symbol>

  <!-- logo-bird 54×33 -->
  <symbol id="icon-logo-bird" viewBox="0 0 54 33">
    <path fill="#22294F" d="M7.28474 0.450952C7.45222 0.111363 7.85834 -0.079437 8.22194 0.0317171C8.57773 0.125367 8.74868 0.484211 8.96649 0.747655C12.724 5.65332 16.9223 10.2491 21.7142 14.1457C22.8978 15.1058 24.1205 16.0169 25.3805 16.8729C27.3521 13.3343 29.0026 9.60935 30.2496 5.74872C30.6991 4.3466 31.0862 2.92435 31.3994 1.48547C31.4689 1.07412 31.8559 0.755532 32.2689 0.772161C32.6785 0.778288 32.9771 1.10037 33.286 1.32793C35.5448 3.18254 36.9489 5.92464 37.5728 8.76125C37.8262 9.89205 37.9598 11.0474 38.0136 12.2044C40.3063 11.5891 42.8385 12.3313 44.5567 13.9514C44.8439 14.2419 45.1529 14.5203 45.3689 14.8712C45.5911 15.2371 45.3984 15.7683 45.0019 15.9136C44.8378 15.9556 44.6704 15.9714 44.5038 15.9915C43.5752 16.079 42.7934 16.6812 42.172 17.3429C41.1507 18.457 40.394 19.7795 39.6242 21.074C38.1724 23.5658 36.7215 26.1065 34.697 28.1817C33.594 29.3195 32.3193 30.298 30.8987 30.9965C29.2465 31.8218 27.4129 32.2454 25.5758 32.3382C23.7829 32.417 21.9858 32.2778 20.2129 32.0091C15.6831 31.3063 11.3407 29.6363 7.33594 27.4168C4.94174 26.0829 2.64906 24.5574 0.521272 22.8227C0.305195 22.6441 0.0379191 22.456 0.0101502 22.1496C-0.0809666 21.6525 0.458792 21.1869 0.930863 21.3707C1.36041 21.5737 1.76653 21.8276 2.20737 22.0087C5.16649 23.3006 8.40764 23.7977 11.6123 23.908C9.74662 21.2639 8.29743 18.3345 7.2049 15.287C6.68076 13.8122 6.23646 12.3068 5.91712 10.7734C5.65158 9.47807 5.4598 8.1556 5.52141 6.82962C5.6134 4.60742 6.17658 2.38258 7.28474 0.450952ZM8.09003 1.89158C7.04002 4.18293 6.64518 6.79111 7.04697 9.28902C7.32639 11.1244 7.83057 12.9195 8.44582 14.6682C9.8308 18.5376 11.7842 22.2529 14.5203 25.3276C16.1491 27.1472 18.0912 28.7174 20.3205 29.7204C22.0509 30.5011 23.9443 30.9203 25.8413 30.9221C27.7105 30.7995 29.5606 30.2455 31.1651 29.2635C33.4595 27.8719 35.1613 25.7083 36.5827 23.4607C34.4948 23.0494 32.4833 22.3098 30.5516 21.4206C27.0718 19.8058 23.8515 17.665 20.8681 15.2511C16.0753 11.3589 11.8692 6.77711 8.09003 1.89158ZM32.5779 2.548C31.3066 7.83614 29.197 12.902 26.5451 17.6335C27.051 17.9547 27.563 18.2662 28.0836 18.5647C29.6673 17.4505 31.186 16.2471 32.7419 15.0962C33.9776 14.1921 35.2472 13.3124 36.6478 12.6858C36.6044 10.762 36.3032 8.82865 35.6108 7.02918C34.9547 5.33123 33.9516 3.74532 32.5779 2.548ZM37.69 13.7676C36.3284 14.2813 35.1127 15.1084 33.9325 15.9504C32.4165 17.0488 30.9525 18.219 29.4322 19.3113C31.9331 20.6136 34.579 21.7146 37.3689 22.1776C38.3677 20.52 39.2728 18.7975 40.4365 17.2466C41.2209 16.2121 42.1824 15.2397 43.426 14.7977C42.5296 14.0415 41.4205 13.5295 40.2525 13.4148C39.3856 13.3107 38.5039 13.4595 37.69 13.7676ZM5.18037 24.4681C9.16955 27.0422 13.5353 29.0885 18.1597 30.179C16.1126 28.9519 14.3155 27.3275 12.8099 25.472C12.7448 25.402 12.6875 25.2935 12.5738 25.3162C10.0894 25.3083 7.59887 25.0528 5.18037 24.4681Z" />
    <path fill="#75C75C" d="M48.9597 8.70828C49.0777 8.62164 49.2625 8.61726 49.3649 8.73279C49.8405 9.30169 50.0505 10.1008 49.8405 10.8246C49.9949 10.7178 50.152 10.6163 50.3073 10.5104C50.3715 9.88197 50.8757 9.39971 51.4363 9.18178C52.1496 8.89996 52.9436 8.92972 53.6873 9.06013C53.8375 9.07938 54.0292 9.17303 53.9989 9.35858C53.4903 10.4027 52.3423 11.13 51.1777 11.039C50.9877 11.0329 50.8028 10.9532 50.6145 10.9664C49.9637 11.4136 49.3953 11.9694 48.7991 12.4867C49.6921 12.4359 50.6267 12.6626 51.3183 13.2542C51.4676 13.3496 51.4745 13.6017 51.3087 13.684C50.5425 14.1461 49.6513 14.5006 48.7436 14.3955C48.2359 14.3413 47.7699 14.0909 47.3968 13.7479C46.8475 14.287 46.3312 14.8576 45.8417 15.4519C46.7815 15.2217 47.7526 15.4476 48.6447 15.7626C48.8538 15.8108 48.8929 16.1197 48.7297 16.2423C48.0693 16.8593 47.3291 17.4807 46.4179 17.6461C45.761 17.7757 45.0955 17.5814 44.5114 17.2838C43.9734 18.1293 43.4875 19.008 43.0596 19.9165C42.8002 19.6355 42.5407 19.3555 42.2812 19.0754C42.9711 18.0102 43.7513 17.0081 44.5036 15.9876C44.6702 15.9674 44.8377 15.9517 45.0017 15.9097C45.3983 15.7644 45.591 15.2331 45.3688 14.8673C45.1527 14.5163 44.8438 14.238 44.5566 13.9474C44.2103 12.9094 44.5088 11.6333 45.4096 10.9778C45.6335 10.8727 45.794 11.1099 45.9016 11.2692C46.3685 12.0158 46.4353 12.9488 46.3017 13.803C46.8926 13.2227 47.4957 12.6556 48.1127 12.1033C47.8264 11.6543 47.6415 11.1204 47.7083 10.5813C47.789 9.79532 48.3271 9.13452 48.9597 8.70828Z" />
  </symbol>

  <!-- done 16×16 -->
  <svg id="icon-done" viewBox="0 0 16 16" fill="none">
    <path d="M3.33331 9.33337L7.33331 13.3334L12.6666 3.33337" stroke="currentColor" stroke-width="1.5" stroke-miterlimit="10" stroke-linecap="round" stroke-linejoin="round" />
  </svg>

</svg>