<svg width="20" height="20" viewBox="0 0 20 20" fill="none" xmlns="http://www.w3.org/2000/svg">
<path fill-rule="evenodd" clip-rule="evenodd" d="M2.23634 9.46938C7.06719 7.35919 10.2831 5.95703 11.898 5.27678C16.4942 3.34707 17.4604 3.01388 18.0815 3C18.2195 3 18.5232 3.02777 18.7302 3.19436C18.8959 3.33319 18.9373 3.51366 18.9649 3.65249C18.9925 3.79132 19.0201 4.08286 18.9925 4.30498C18.744 6.94271 17.6674 13.3427 17.1153 16.2858C16.8807 17.5353 16.4252 17.9518 15.9835 17.9934C15.0174 18.0767 14.2858 17.3548 13.3611 16.744C11.898 15.786 11.0837 15.1891 9.66204 14.2451C8.01955 13.1622 9.08234 12.5652 10.0209 11.5934C10.2693 11.3436 14.5067 7.45637 14.5895 7.1093C14.6033 7.06766 14.6033 6.90106 14.5067 6.81776C14.4101 6.73447 14.272 6.76223 14.1616 6.79C14.0098 6.81777 11.691 8.37264 7.17761 11.4407C6.51509 11.8989 5.92159 12.121 5.38329 12.1071C4.78979 12.0932 3.65799 11.7739 2.80224 11.4963C1.76706 11.1631 0.938916 10.9826 1.00793 10.3995C1.04934 10.0941 1.46341 9.78868 2.23634 9.46938Z" fill="#22294F"/>
</svg>
