<svg width="16" height="16" viewBox="0 0 16 16" fill="none" xmlns="http://www.w3.org/2000/svg">
<path d="M7.9987 6.66666C9.47146 6.66666 10.6654 5.47275 10.6654 3.99999C10.6654 2.52724 9.47146 1.33333 7.9987 1.33333C6.52594 1.33333 5.33203 2.52724 5.33203 3.99999C5.33203 5.47275 6.52594 6.66666 7.9987 6.66666Z" fill="#22294F"/>
<path d="M13.6654 14.6667C14.2176 14.6667 14.6731 14.2165 14.5905 13.6704C14.379 12.271 13.7257 10.9656 12.7127 9.95262C11.4625 8.70237 9.76681 7.99999 7.9987 7.99999C6.23059 7.99999 4.5349 8.70237 3.28465 9.95262C2.27168 10.9656 1.61836 12.271 1.40687 13.6704C1.32434 14.2165 1.77975 14.6667 2.33203 14.6667H13.6654Z" fill="#22294F"/>
</svg>
