<svg width="86" height="86" viewBox="0 0 86 86" fill="none" xmlns="http://www.w3.org/2000/svg">
<path d="M2.96552 0H1C0.447715 0 0 0.447716 0 1V2.96552H2.96552V0Z" fill="#22294F"/>
<path d="M5.93103 0H2.96552V2.96552H5.93103V0Z" fill="#22294F"/>
<path d="M8.89655 0H5.93103V2.96552H8.89655V0Z" fill="#22294F"/>
<path d="M11.8621 0H8.89655V2.96552H11.8621V0Z" fill="#22294F"/>
<path d="M14.8276 0H11.8621V2.96552H14.8276V0Z" fill="#22294F"/>
<path d="M17.7931 0H14.8276V2.96552H17.7931V0Z" fill="#22294F"/>
<path d="M20.7586 1C20.7586 0.447715 20.3109 0 19.7586 0H17.7931V2.96552H20.7586V1Z" fill="#22294F"/>
<path d="M29.6552 0H27.6897C27.1374 0 26.6897 0.447716 26.6897 1V2.96552H29.6552V0Z" fill="#22294F"/>
<path d="M32.6207 0H29.6552V2.96552H32.6207V0Z" fill="#22294F"/>
<path d="M35.5862 1C35.5862 0.447715 35.1385 0 34.5862 0H32.6207V2.96552H35.5862V1Z" fill="#22294F"/>
<path d="M41.5172 0H39.5517C38.9994 0 38.5517 0.447716 38.5517 1V2.96552H41.5172V0Z" fill="#22294F"/>
<path d="M44.4828 0H41.5172V2.96552H44.4828V0Z" fill="#22294F"/>
<path d="M47.4483 0H44.4828V2.96552H47.4483V0Z" fill="#22294F"/>
<path d="M50.4138 1C50.4138 0.447715 49.9661 0 49.4138 0H47.4483V2.96552H49.4138C49.9661 2.96552 50.4138 2.5178 50.4138 1.96552V1Z" fill="#22294F"/>
<path d="M56.3448 1C56.3448 0.447715 55.8971 0 55.3448 0H54.3793C53.827 0 53.3793 0.447716 53.3793 1V1.96552C53.3793 2.5178 53.827 2.96552 54.3793 2.96552H55.3448C55.8971 2.96552 56.3448 2.5178 56.3448 1.96552V1Z" fill="#22294F"/>
<path d="M68.2069 0H66.2414C65.6891 0 65.2414 0.447716 65.2414 1V2.96552H68.2069V0Z" fill="#22294F"/>
<path d="M71.1724 0H68.2069V2.96552H71.1724V0Z" fill="#22294F"/>
<path d="M74.1379 0H71.1724V2.96552H74.1379V0Z" fill="#22294F"/>
<path d="M77.1034 0H74.1379V2.96552H77.1034V0Z" fill="#22294F"/>
<path d="M80.069 0H77.1034V2.96552H80.069V0Z" fill="#22294F"/>
<path d="M83.0345 0H80.069V2.96552H83.0345V0Z" fill="#22294F"/>
<path d="M86 1C86 0.447715 85.5523 0 85 0H83.0345V2.96552H86V1Z" fill="#22294F"/>
<path d="M2.96552 2.96552H0V5.93103H2.96552V2.96552Z" fill="#22294F"/>
<path d="M20.7586 2.96552H17.7931V5.93103H20.7586V2.96552Z" fill="#22294F"/>
<path d="M26.6897 2.96552H24.7241C24.1719 2.96552 23.7241 3.41323 23.7241 3.96552V5.93103H26.6897V2.96552Z" fill="#22294F"/>
<path d="M29.6552 2.96552H26.6897V5.93103H29.6552V2.96552Z" fill="#22294F"/>
<path d="M35.5862 2.96552H32.6207V5.93103H35.5862V2.96552Z" fill="#22294F"/>
<path d="M41.5172 2.96552H38.5517V5.93103H41.5172V2.96552Z" fill="#22294F"/>
<path d="M44.4828 2.96552H41.5172V5.93103H44.4828V2.96552Z" fill="#22294F"/>
<path d="M62.2759 3.96552C62.2759 3.41323 61.8281 2.96552 61.2759 2.96552H60.3103C59.7581 2.96552 59.3103 3.41323 59.3103 3.96552V5.93103H62.2759V3.96552Z" fill="#22294F"/>
<path d="M68.2069 2.96552H65.2414V5.93103H68.2069V2.96552Z" fill="#22294F"/>
<path d="M86 2.96552H83.0345V5.93103H86V2.96552Z" fill="#22294F"/>
<path d="M2.96552 5.93103H0V8.89655H2.96552V5.93103Z" fill="#22294F"/>
<path d="M8.89655 5.93103H6.93103C6.37875 5.93103 5.93103 6.37875 5.93103 6.93104V8.89655H8.89655V5.93103Z" fill="#22294F"/>
<path d="M11.8621 5.93103H8.89655V8.89655H11.8621V5.93103Z" fill="#22294F"/>
<path d="M14.8276 6.93103C14.8276 6.37875 14.3799 5.93103 13.8276 5.93103H11.8621V8.89655H14.8276V6.93103Z" fill="#22294F"/>
<path d="M20.7586 5.93103H17.7931V8.89655H20.7586V5.93103Z" fill="#22294F"/>
<path d="M26.6897 5.93103H23.7241V8.89655H26.6897V5.93103Z" fill="#22294F"/>
<path d="M32.6207 5.93103H29.6552V8.89655H32.6207V5.93103Z" fill="#22294F"/>
<path d="M35.5862 5.93103H32.6207V8.89655H35.5862V5.93103Z" fill="#22294F"/>
<path d="M38.5517 5.93103H35.5862V8.89655H38.5517V5.93103Z" fill="#22294F"/>
<path d="M41.5172 5.93103H38.5517V8.89655H41.5172V5.93103Z" fill="#22294F"/>
<path d="M44.4828 5.93103H41.5172V8.89655H44.4828V5.93103Z" fill="#22294F"/>
<path d="M53.3793 6.93103C53.3793 6.37875 52.9316 5.93103 52.3793 5.93103H51.4138C50.8615 5.93103 50.4138 6.37875 50.4138 6.93104V8.89655H53.3793V6.93103Z" fill="#22294F"/>
<path d="M59.3103 5.93103H57.3448C56.7925 5.93103 56.3448 6.37875 56.3448 6.93104V8.89655H59.3103V5.93103Z" fill="#22294F"/>
<path d="M62.2759 5.93103H59.3103V8.89655H61.2759C61.8281 8.89655 62.2759 8.44884 62.2759 7.89655V5.93103Z" fill="#22294F"/>
<path d="M68.2069 5.93103H65.2414V8.89655H68.2069V5.93103Z" fill="#22294F"/>
<path d="M74.1379 5.93103H72.1724C71.6201 5.93103 71.1724 6.37875 71.1724 6.93104V8.89655H74.1379V5.93103Z" fill="#22294F"/>
<path d="M77.1034 5.93103H74.1379V8.89655H77.1034V5.93103Z" fill="#22294F"/>
<path d="M80.069 6.93103C80.069 6.37875 79.6212 5.93103 79.069 5.93103H77.1034V8.89655H80.069V6.93103Z" fill="#22294F"/>
<path d="M86 5.93103H83.0345V8.89655H86V5.93103Z" fill="#22294F"/>
<path d="M2.96552 8.89655H0V11.8621H2.96552V8.89655Z" fill="#22294F"/>
<path d="M8.89655 8.89655H5.93103V11.8621H8.89655V8.89655Z" fill="#22294F"/>
<path d="M11.8621 8.89655H8.89655V11.8621H11.8621V8.89655Z" fill="#22294F"/>
<path d="M14.8276 8.89655H11.8621V11.8621H14.8276V8.89655Z" fill="#22294F"/>
<path d="M20.7586 8.89655H17.7931V11.8621H20.7586V8.89655Z" fill="#22294F"/>
<path d="M26.6897 8.89655H23.7241V10.8621C23.7241 11.4144 24.1719 11.8621 24.7241 11.8621H26.6897V8.89655Z" fill="#22294F"/>
<path d="M29.6552 8.89655H26.6897V11.8621H29.6552V8.89655Z" fill="#22294F"/>
<path d="M32.6207 8.89655H29.6552V11.8621H32.6207V8.89655Z" fill="#22294F"/>
<path d="M35.5862 8.89655H32.6207V11.8621H35.5862V8.89655Z" fill="#22294F"/>
<path d="M47.4483 8.89655H44.4828V11.8621H47.4483V8.89655Z" fill="#22294F"/>
<path d="M50.4138 8.89655H47.4483V11.8621H50.4138V8.89655Z" fill="#22294F"/>
<path d="M56.3448 8.89655H53.3793V10.8621C53.3793 11.4144 53.827 11.8621 54.3793 11.8621H56.3448V8.89655Z" fill="#22294F"/>
<path d="M59.3103 8.89655H56.3448V11.8621H58.3103C58.8626 11.8621 59.3103 11.4144 59.3103 10.8621V8.89655Z" fill="#22294F"/>
<path d="M68.2069 8.89655H65.2414V11.8621H68.2069V8.89655Z" fill="#22294F"/>
<path d="M74.1379 8.89655H71.1724V11.8621H74.1379V8.89655Z" fill="#22294F"/>
<path d="M77.1034 8.89655H74.1379V11.8621H77.1034V8.89655Z" fill="#22294F"/>
<path d="M80.069 8.89655H77.1034V11.8621H80.069V8.89655Z" fill="#22294F"/>
<path d="M86 8.89655H83.0345V11.8621H86V8.89655Z" fill="#22294F"/>
<path d="M2.96552 11.8621H0V14.8276H2.96552V11.8621Z" fill="#22294F"/>
<path d="M8.89655 11.8621H5.93103V13.8276C5.93103 14.3799 6.37875 14.8276 6.93104 14.8276H8.89655V11.8621Z" fill="#22294F"/>
<path d="M11.8621 11.8621H8.89655V14.8276H11.8621V11.8621Z" fill="#22294F"/>
<path d="M14.8276 11.8621H11.8621V14.8276H13.8276C14.3799 14.8276 14.8276 14.3799 14.8276 13.8276V11.8621Z" fill="#22294F"/>
<path d="M20.7586 11.8621H17.7931V14.8276H20.7586V11.8621Z" fill="#22294F"/>
<path d="M32.6207 11.8621H29.6552V14.8276H32.6207V11.8621Z" fill="#22294F"/>
<path d="M35.5862 11.8621H32.6207V14.8276H35.5862V11.8621Z" fill="#22294F"/>
<path d="M38.5517 12.8621C38.5517 12.3098 38.104 11.8621 37.5517 11.8621H35.5862V14.8276H38.5517V12.8621Z" fill="#22294F"/>
<path d="M47.4483 11.8621H44.4828V14.8276H47.4483V11.8621Z" fill="#22294F"/>
<path d="M50.4138 11.8621H47.4483V14.8276H50.4138V11.8621Z" fill="#22294F"/>
<path d="M68.2069 11.8621H65.2414V14.8276H68.2069V11.8621Z" fill="#22294F"/>
<path d="M74.1379 11.8621H71.1724V13.8276C71.1724 14.3799 71.6201 14.8276 72.1724 14.8276H74.1379V11.8621Z" fill="#22294F"/>
<path d="M77.1034 11.8621H74.1379V14.8276H77.1034V11.8621Z" fill="#22294F"/>
<path d="M80.069 11.8621H77.1034V14.8276H79.069C79.6212 14.8276 80.069 14.3799 80.069 13.8276V11.8621Z" fill="#22294F"/>
<path d="M86 11.8621H83.0345V14.8276H86V11.8621Z" fill="#22294F"/>
<path d="M2.96552 14.8276H0V17.7931H2.96552V14.8276Z" fill="#22294F"/>
<path d="M20.7586 14.8276H17.7931V17.7931H20.7586V14.8276Z" fill="#22294F"/>
<path d="M26.6897 14.8276H24.7241C24.1719 14.8276 23.7241 15.2753 23.7241 15.8276V17.7931H26.6897V14.8276Z" fill="#22294F"/>
<path d="M29.6552 14.8276H26.6897V17.7931H29.6552V14.8276Z" fill="#22294F"/>
<path d="M35.5862 14.8276H32.6207V17.7931H35.5862V14.8276Z" fill="#22294F"/>
<path d="M38.5517 14.8276H35.5862V17.7931H38.5517V14.8276Z" fill="#22294F"/>
<path d="M47.4483 14.8276H44.4828V17.7931H47.4483V14.8276Z" fill="#22294F"/>
<path d="M50.4138 14.8276H47.4483V17.7931H50.4138V14.8276Z" fill="#22294F"/>
<path d="M53.3793 15.8276C53.3793 15.2753 52.9316 14.8276 52.3793 14.8276H50.4138V17.7931H53.3793V15.8276Z" fill="#22294F"/>
<path d="M68.2069 14.8276H65.2414V17.7931H68.2069V14.8276Z" fill="#22294F"/>
<path d="M86 14.8276H83.0345V17.7931H86V14.8276Z" fill="#22294F"/>
<path d="M2.96552 17.7931H0V19.7586C0 20.3109 0.447716 20.7586 1 20.7586H2.96552V17.7931Z" fill="#22294F"/>
<path d="M5.93103 17.7931H2.96552V20.7586H5.93103V17.7931Z" fill="#22294F"/>
<path d="M8.89655 17.7931H5.93103V20.7586H8.89655V17.7931Z" fill="#22294F"/>
<path d="M11.8621 17.7931H8.89655V20.7586H11.8621V17.7931Z" fill="#22294F"/>
<path d="M14.8276 17.7931H11.8621V20.7586H14.8276V17.7931Z" fill="#22294F"/>
<path d="M17.7931 17.7931H14.8276V20.7586H17.7931V17.7931Z" fill="#22294F"/>
<path d="M20.7586 17.7931H17.7931V20.7586H19.7586C20.3109 20.7586 20.7586 20.3109 20.7586 19.7586V17.7931Z" fill="#22294F"/>
<path d="M26.6897 17.7931H23.7241V19.7586C23.7241 20.3109 24.1719 20.7586 24.7241 20.7586H25.6897C26.2419 20.7586 26.6897 20.3109 26.6897 19.7586V17.7931Z" fill="#22294F"/>
<path d="M32.6207 17.7931H29.6552V19.7586C29.6552 20.3109 30.1029 20.7586 30.6552 20.7586H32.6207V17.7931Z" fill="#22294F"/>
<path d="M38.5517 17.7931H35.5862V20.7586H38.5517V17.7931Z" fill="#22294F"/>
<path d="M44.4828 17.7931H42.5172C41.965 17.7931 41.5172 18.2408 41.5172 18.7931V20.7586H44.4828V17.7931Z" fill="#22294F"/>
<path d="M50.4138 17.7931H47.4483V20.7586H50.4138V17.7931Z" fill="#22294F"/>
<path d="M56.3448 18.7931C56.3448 18.2408 55.8971 17.7931 55.3448 17.7931H53.3793V20.7586H56.3448V18.7931Z" fill="#22294F"/>
<path d="M62.2759 18.7931C62.2759 18.2408 61.8281 17.7931 61.2759 17.7931H60.3103C59.7581 17.7931 59.3103 18.2408 59.3103 18.7931V20.7586H62.2759V18.7931Z" fill="#22294F"/>
<path d="M68.2069 17.7931H65.2414V19.7586C65.2414 20.3109 65.6891 20.7586 66.2414 20.7586H68.2069V17.7931Z" fill="#22294F"/>
<path d="M71.1724 17.7931H68.2069V20.7586H71.1724V17.7931Z" fill="#22294F"/>
<path d="M74.1379 17.7931H71.1724V20.7586H74.1379V17.7931Z" fill="#22294F"/>
<path d="M77.1034 17.7931H74.1379V20.7586H77.1034V17.7931Z" fill="#22294F"/>
<path d="M80.069 17.7931H77.1034V20.7586H80.069V17.7931Z" fill="#22294F"/>
<path d="M83.0345 17.7931H80.069V20.7586H83.0345V17.7931Z" fill="#22294F"/>
<path d="M86 17.7931H83.0345V20.7586H85C85.5523 20.7586 86 20.3109 86 19.7586V17.7931Z" fill="#22294F"/>
<path d="M35.5862 20.7586H32.6207V23.7241H35.5862V20.7586Z" fill="#22294F"/>
<path d="M41.5172 20.7586H38.5517V23.7241H41.5172V20.7586Z" fill="#22294F"/>
<path d="M47.4483 20.7586H44.4828V23.7241H47.4483V20.7586Z" fill="#22294F"/>
<path d="M53.3793 20.7586H50.4138V23.7241H53.3793V20.7586Z" fill="#22294F"/>
<path d="M56.3448 20.7586H53.3793V23.7241H56.3448V20.7586Z" fill="#22294F"/>
<path d="M59.3103 20.7586H56.3448V23.7241H59.3103V20.7586Z" fill="#22294F"/>
<path d="M62.2759 20.7586H59.3103V23.7241H62.2759V20.7586Z" fill="#22294F"/>
<path d="M5.93103 23.7241H3.96552C3.41323 23.7241 2.96552 24.1719 2.96552 24.7241V26.6897H5.93103V23.7241Z" fill="#22294F"/>
<path d="M8.89655 24.7241C8.89655 24.1719 8.44884 23.7241 7.89655 23.7241H5.93103V26.6897H8.89655V24.7241Z" fill="#22294F"/>
<path d="M20.7586 24.7241C20.7586 24.1719 20.3109 23.7241 19.7586 23.7241H18.7931C18.2408 23.7241 17.7931 24.1719 17.7931 24.7241V25.6897C17.7931 26.2419 18.2408 26.6897 18.7931 26.6897H19.7586C20.3109 26.6897 20.7586 26.2419 20.7586 25.6897V24.7241Z" fill="#22294F"/>
<path d="M29.6552 24.7241C29.6552 24.1719 29.2075 23.7241 28.6552 23.7241H27.6897C27.1374 23.7241 26.6897 24.1719 26.6897 24.7241V26.6897H29.6552V24.7241Z" fill="#22294F"/>
<path d="M35.5862 23.7241H32.6207V26.6897H35.5862V23.7241Z" fill="#22294F"/>
<path d="M41.5172 23.7241H38.5517V26.6897H41.5172V23.7241Z" fill="#22294F"/>
<path d="M44.4828 23.7241H41.5172V26.6897H44.4828V23.7241Z" fill="#22294F"/>
<path d="M50.4138 23.7241H47.4483V26.6897H50.4138V23.7241Z" fill="#22294F"/>
<path d="M59.3103 23.7241H56.3448V26.6897H59.3103V23.7241Z" fill="#22294F"/>
<path d="M65.2414 24.7241C65.2414 24.1719 64.7937 23.7241 64.2414 23.7241H62.2759V25.6897C62.2759 26.2419 62.7236 26.6897 63.2759 26.6897H64.2414C64.7937 26.6897 65.2414 26.2419 65.2414 25.6897V24.7241Z" fill="#22294F"/>
<path d="M71.1724 24.7241C71.1724 24.1719 70.7247 23.7241 70.1724 23.7241H69.2069C68.6546 23.7241 68.2069 24.1719 68.2069 24.7241V25.6897C68.2069 26.2419 68.6546 26.6897 69.2069 26.6897H70.1724C70.7247 26.6897 71.1724 26.2419 71.1724 25.6897V24.7241Z" fill="#22294F"/>
<path d="M77.1034 23.7241H75.1379C74.5856 23.7241 74.1379 24.1719 74.1379 24.7241V25.6897C74.1379 26.2419 74.5856 26.6897 75.1379 26.6897H77.1034V23.7241Z" fill="#22294F"/>
<path d="M80.069 23.7241H77.1034V26.6897H80.069V23.7241Z" fill="#22294F"/>
<path d="M83.0345 24.7241C83.0345 24.1719 82.5868 23.7241 82.0345 23.7241H80.069V26.6897H82.0345C82.5868 26.6897 83.0345 26.2419 83.0345 25.6897V24.7241Z" fill="#22294F"/>
<path d="M2.96552 26.6897H1C0.447715 26.6897 0 27.1374 0 27.6897V29.6552H2.96552V26.6897Z" fill="#22294F"/>
<path d="M5.93103 26.6897H2.96552V29.6552H5.93103V26.6897Z" fill="#22294F"/>
<path d="M8.89655 26.6897H5.93103V29.6552H7.89655C8.44884 29.6552 8.89655 29.2075 8.89655 28.6552V26.6897Z" fill="#22294F"/>
<path d="M14.8276 27.6897C14.8276 27.1374 14.3799 26.6897 13.8276 26.6897H12.8621C12.3098 26.6897 11.8621 27.1374 11.8621 27.6897V29.6552H14.8276V27.6897Z" fill="#22294F"/>
<path d="M26.6897 26.6897H24.7241C24.1719 26.6897 23.7241 27.1374 23.7241 27.6897V29.6552H26.6897V26.6897Z" fill="#22294F"/>
<path d="M32.6207 26.6897H29.6552V29.6552H32.6207V26.6897Z" fill="#22294F"/>
<path d="M35.5862 26.6897H32.6207V29.6552H35.5862V26.6897Z" fill="#22294F"/>
<path d="M38.5517 26.6897H35.5862V29.6552H38.5517V26.6897Z" fill="#22294F"/>
<path d="M41.5172 26.6897H38.5517V29.6552H40.5172C41.0695 29.6552 41.5172 29.2075 41.5172 28.6552V26.6897Z" fill="#22294F"/>
<path d="M47.4483 26.6897H44.4828V29.6552H47.4483V26.6897Z" fill="#22294F"/>
<path d="M50.4138 26.6897H47.4483V29.6552H50.4138V26.6897Z" fill="#22294F"/>
<path d="M59.3103 26.6897H56.3448V28.6552C56.3448 29.2075 56.7925 29.6552 57.3448 29.6552H59.3103V26.6897Z" fill="#22294F"/>
<path d="M2.96552 29.6552H0V32.6207H2.96552V29.6552Z" fill="#22294F"/>
<path d="M14.8276 29.6552H11.8621V32.6207H14.8276V29.6552Z" fill="#22294F"/>
<path d="M20.7586 29.6552H18.7931C18.2408 29.6552 17.7931 30.1029 17.7931 30.6552V32.6207H20.7586V29.6552Z" fill="#22294F"/>
<path d="M23.7241 29.6552H20.7586V32.6207H23.7241V29.6552Z" fill="#22294F"/>
<path d="M26.6897 29.6552H23.7241V32.6207H26.6897V29.6552Z" fill="#22294F"/>
<path d="M29.6552 29.6552H26.6897V32.6207H28.6552C29.2075 32.6207 29.6552 32.173 29.6552 31.6207V29.6552Z" fill="#22294F"/>
<path d="M47.4483 29.6552H44.4828V32.6207H47.4483V29.6552Z" fill="#22294F"/>
<path d="M53.3793 30.6552C53.3793 30.1029 52.9316 29.6552 52.3793 29.6552H50.4138V32.6207H53.3793V30.6552Z" fill="#22294F"/>
<path d="M62.2759 29.6552H59.3103V32.6207H62.2759V29.6552Z" fill="#22294F"/>
<path d="M65.2414 29.6552H62.2759V32.6207H65.2414V29.6552Z" fill="#22294F"/>
<path d="M68.2069 29.6552H65.2414V32.6207H68.2069V29.6552Z" fill="#22294F"/>
<path d="M71.1724 29.6552H68.2069V32.6207H71.1724V29.6552Z" fill="#22294F"/>
<path d="M74.1379 30.6552C74.1379 30.1029 73.6902 29.6552 73.1379 29.6552H71.1724V32.6207H74.1379V30.6552Z" fill="#22294F"/>
<path d="M80.069 30.6552C80.069 30.1029 79.6212 29.6552 79.069 29.6552H78.1034C77.5512 29.6552 77.1034 30.1029 77.1034 30.6552V32.6207H80.069V30.6552Z" fill="#22294F"/>
<path d="M2.96552 32.6207H0V34.5862C0 35.1385 0.447716 35.5862 1 35.5862H2.96552V32.6207Z" fill="#22294F"/>
<path d="M5.93103 32.6207H2.96552V35.5862H5.93103V32.6207Z" fill="#22294F"/>
<path d="M8.89655 33.6207C8.89655 33.0684 8.44884 32.6207 7.89655 32.6207H5.93103V35.5862H8.89655V33.6207Z" fill="#22294F"/>
<path d="M14.8276 32.6207H11.8621V34.5862C11.8621 35.1385 12.3098 35.5862 12.8621 35.5862H14.8276V32.6207Z" fill="#22294F"/>
<path d="M17.7931 32.6207H14.8276V35.5862H17.7931V32.6207Z" fill="#22294F"/>
<path d="M38.5517 33.6207C38.5517 33.0684 38.104 32.6207 37.5517 32.6207H36.5862C36.0339 32.6207 35.5862 33.0684 35.5862 33.6207V35.5862H38.5517V33.6207Z" fill="#22294F"/>
<path d="M47.4483 32.6207H44.4828V35.5862H47.4483V32.6207Z" fill="#22294F"/>
<path d="M53.3793 32.6207H50.4138V35.5862H53.3793V32.6207Z" fill="#22294F"/>
<path d="M62.2759 32.6207H59.3103V35.5862H62.2759V32.6207Z" fill="#22294F"/>
<path d="M65.2414 32.6207H62.2759V35.5862H64.2414C64.7937 35.5862 65.2414 35.1385 65.2414 34.5862V32.6207Z" fill="#22294F"/>
<path d="M74.1379 32.6207H71.1724V35.5862H74.1379V32.6207Z" fill="#22294F"/>
<path d="M80.069 32.6207H77.1034V35.5862H80.069V32.6207Z" fill="#22294F"/>
<path d="M86 33.6207C86 33.0684 85.5523 32.6207 85 32.6207H84.0345C83.4822 32.6207 83.0345 33.0684 83.0345 33.6207V35.5862H85C85.5523 35.5862 86 35.1385 86 34.5862V33.6207Z" fill="#22294F"/>
<path d="M8.89655 35.5862H5.93103V38.5517H8.89655V35.5862Z" fill="#22294F"/>
<path d="M17.7931 35.5862H14.8276V38.5517H17.7931V35.5862Z" fill="#22294F"/>
<path d="M20.7586 36.5862C20.7586 36.0339 20.3109 35.5862 19.7586 35.5862H17.7931V38.5517H19.7586C20.3109 38.5517 20.7586 38.104 20.7586 37.5517V36.5862Z" fill="#22294F"/>
<path d="M29.6552 35.5862H27.6897C27.1374 35.5862 26.6897 36.0339 26.6897 36.5862V38.5517H29.6552V35.5862Z" fill="#22294F"/>
<path d="M32.6207 36.5862C32.6207 36.0339 32.173 35.5862 31.6207 35.5862H29.6552V38.5517H31.6207C32.173 38.5517 32.6207 38.104 32.6207 37.5517V36.5862Z" fill="#22294F"/>
<path d="M38.5517 35.5862H35.5862V38.5517H38.5517V35.5862Z" fill="#22294F"/>
<path d="M44.4828 35.5862H42.5172C41.965 35.5862 41.5172 36.0339 41.5172 36.5862V38.5517H44.4828V35.5862Z" fill="#22294F"/>
<path d="M47.4483 35.5862H44.4828V38.5517H47.4483V35.5862Z" fill="#22294F"/>
<path d="M53.3793 35.5862H50.4138V38.5517H53.3793V35.5862Z" fill="#22294F"/>
<path d="M59.3103 35.5862H57.3448C56.7925 35.5862 56.3448 36.0339 56.3448 36.5862V38.5517H59.3103V35.5862Z" fill="#22294F"/>
<path d="M71.1724 35.5862H69.2069C68.6546 35.5862 68.2069 36.0339 68.2069 36.5862V38.5517H71.1724V35.5862Z" fill="#22294F"/>
<path d="M74.1379 35.5862H71.1724V38.5517H74.1379V35.5862Z" fill="#22294F"/>
<path d="M77.1034 35.5862H74.1379V38.5517H77.1034V35.5862Z" fill="#22294F"/>
<path d="M83.0345 35.5862H80.069V38.5517H83.0345V35.5862Z" fill="#22294F"/>
<path d="M2.96552 38.5517H1C0.447715 38.5517 0 38.9994 0 39.5517V41.5172H2.96552V38.5517Z" fill="#22294F"/>
<path d="M5.93103 38.5517H2.96552V41.5172H5.93103V38.5517Z" fill="#22294F"/>
<path d="M8.89655 38.5517H5.93103V41.5172H8.89655V38.5517Z" fill="#22294F"/>
<path d="M11.8621 38.5517H8.89655V41.5172H11.8621V38.5517Z" fill="#22294F"/>
<path d="M14.8276 38.5517H11.8621V41.5172H14.8276V38.5517Z" fill="#22294F"/>
<path d="M26.6897 38.5517H24.7241C24.1719 38.5517 23.7241 38.9994 23.7241 39.5517V41.5172H26.6897V38.5517Z" fill="#22294F"/>
<path d="M38.5517 38.5517H35.5862V41.5172H38.5517V38.5517Z" fill="#22294F"/>
<path d="M44.4828 38.5517H41.5172V41.5172H44.4828V38.5517Z" fill="#22294F"/>
<path d="M47.4483 38.5517H44.4828V41.5172H47.4483V38.5517Z" fill="#22294F"/>
<path d="M50.4138 38.5517H47.4483V41.5172H50.4138V38.5517Z" fill="#22294F"/>
<path d="M53.3793 38.5517H50.4138V41.5172H53.3793V38.5517Z" fill="#22294F"/>
<path d="M59.3103 38.5517H56.3448V41.5172H59.3103V38.5517Z" fill="#22294F"/>
<path d="M65.2414 39.5517C65.2414 38.9994 64.7937 38.5517 64.2414 38.5517H63.2759C62.7236 38.5517 62.2759 38.9994 62.2759 39.5517V41.5172H65.2414V39.5517Z" fill="#22294F"/>
<path d="M71.1724 38.5517H68.2069V40.5172C68.2069 41.0695 68.6546 41.5172 69.2069 41.5172H71.1724V38.5517Z" fill="#22294F"/>
<path d="M80.069 38.5517H77.1034V41.5172H80.069V38.5517Z" fill="#22294F"/>
<path d="M83.0345 38.5517H80.069V41.5172H83.0345V38.5517Z" fill="#22294F"/>
<path d="M2.96552 41.5172H0V44.4828H2.96552V41.5172Z" fill="#22294F"/>
<path d="M5.93103 41.5172H2.96552V44.4828H5.93103V41.5172Z" fill="#22294F"/>
<path d="M8.89655 41.5172H5.93103V44.4828H8.89655V41.5172Z" fill="#22294F"/>
<path d="M17.7931 41.5172H14.8276V44.4828H17.7931V41.5172Z" fill="#22294F"/>
<path d="M20.7586 41.5172H17.7931V44.4828H20.7586V41.5172Z" fill="#22294F"/>
<path d="M23.7241 41.5172H20.7586V44.4828H23.7241V41.5172Z" fill="#22294F"/>
<path d="M26.6897 41.5172H23.7241V44.4828H26.6897V41.5172Z" fill="#22294F"/>
<path d="M32.6207 41.5172H30.6552C30.1029 41.5172 29.6552 41.965 29.6552 42.5172V43.4828C29.6552 44.035 30.1029 44.4828 30.6552 44.4828H32.6207V41.5172Z" fill="#22294F"/>
<path d="M35.5862 41.5172H32.6207V44.4828H35.5862V41.5172Z" fill="#22294F"/>
<path d="M41.5172 41.5172H38.5517V44.4828H41.5172V41.5172Z" fill="#22294F"/>
<path d="M44.4828 41.5172H41.5172V44.4828H44.4828V41.5172Z" fill="#22294F"/>
<path d="M53.3793 41.5172H50.4138V43.4828C50.4138 44.035 50.8615 44.4828 51.4138 44.4828H53.3793V41.5172Z" fill="#22294F"/>
<path d="M56.3448 41.5172H53.3793V44.4828H56.3448V41.5172Z" fill="#22294F"/>
<path d="M59.3103 41.5172H56.3448V44.4828H59.3103V41.5172Z" fill="#22294F"/>
<path d="M62.2759 41.5172H59.3103V44.4828H62.2759V41.5172Z" fill="#22294F"/>
<path d="M65.2414 41.5172H62.2759V44.4828H64.2414C64.7937 44.4828 65.2414 44.035 65.2414 43.4828V41.5172Z" fill="#22294F"/>
<path d="M74.1379 42.5172C74.1379 41.965 73.6902 41.5172 73.1379 41.5172H71.1724V44.4828H74.1379V42.5172Z" fill="#22294F"/>
<path d="M80.069 41.5172H77.1034V43.4828C77.1034 44.035 77.5512 44.4828 78.1034 44.4828H80.069V41.5172Z" fill="#22294F"/>
<path d="M86 42.5172C86 41.965 85.5523 41.5172 85 41.5172H83.0345V44.4828H85C85.5523 44.4828 86 44.035 86 43.4828V42.5172Z" fill="#22294F"/>
<path d="M2.96552 44.4828H0V47.4483H2.96552V44.4828Z" fill="#22294F"/>
<path d="M5.93103 44.4828H2.96552V47.4483H5.93103V44.4828Z" fill="#22294F"/>
<path d="M8.89655 44.4828H5.93103V47.4483H8.89655V44.4828Z" fill="#22294F"/>
<path d="M14.8276 44.4828H12.8621C12.3098 44.4828 11.8621 44.9305 11.8621 45.4828V46.4483C11.8621 47.0006 12.3098 47.4483 12.8621 47.4483H14.8276V44.4828Z" fill="#22294F"/>
<path d="M23.7241 44.4828H20.7586V47.4483H23.7241V44.4828Z" fill="#22294F"/>
<path d="M26.6897 44.4828H23.7241V47.4483H26.6897V44.4828Z" fill="#22294F"/>
<path d="M35.5862 44.4828H32.6207V47.4483H35.5862V44.4828Z" fill="#22294F"/>
<path d="M38.5517 44.4828H35.5862V47.4483H38.5517V44.4828Z" fill="#22294F"/>
<path d="M41.5172 44.4828H38.5517V47.4483H41.5172V44.4828Z" fill="#22294F"/>
<path d="M47.4483 45.4828C47.4483 44.9305 47.0006 44.4828 46.4483 44.4828H44.4828V47.4483H47.4483V45.4828Z" fill="#22294F"/>
<path d="M59.3103 44.4828H56.3448V47.4483H59.3103V44.4828Z" fill="#22294F"/>
<path d="M62.2759 44.4828H59.3103V47.4483H62.2759V44.4828Z" fill="#22294F"/>
<path d="M74.1379 44.4828H71.1724V47.4483H74.1379V44.4828Z" fill="#22294F"/>
<path d="M83.0345 44.4828H80.069V46.4483C80.069 47.0006 80.5167 47.4483 81.069 47.4483H82.0345C82.5868 47.4483 83.0345 47.0006 83.0345 46.4483V44.4828Z" fill="#22294F"/>
<path d="M2.96552 47.4483H0V49.4138C0 49.9661 0.447716 50.4138 1 50.4138H2.96552V47.4483Z" fill="#22294F"/>
<path d="M5.93103 47.4483H2.96552V50.4138H5.93103V47.4483Z" fill="#22294F"/>
<path d="M8.89655 47.4483H5.93103V50.4138H8.89655V47.4483Z" fill="#22294F"/>
<path d="M17.7931 47.4483H14.8276V50.4138H17.7931V47.4483Z" fill="#22294F"/>
<path d="M20.7586 47.4483H17.7931V50.4138H19.7586C20.3109 50.4138 20.7586 49.9661 20.7586 49.4138V47.4483Z" fill="#22294F"/>
<path d="M29.6552 47.4483H26.6897V50.4138H29.6552V47.4483Z" fill="#22294F"/>
<path d="M32.6207 47.4483H29.6552V50.4138H32.6207V47.4483Z" fill="#22294F"/>
<path d="M41.5172 47.4483H38.5517V50.4138H41.5172V47.4483Z" fill="#22294F"/>
<path d="M47.4483 47.4483H44.4828V49.4138C44.4828 49.9661 44.9305 50.4138 45.4828 50.4138H47.4483V47.4483Z" fill="#22294F"/>
<path d="M59.3103 47.4483H56.3448V50.4138H59.3103V47.4483Z" fill="#22294F"/>
<path d="M62.2759 47.4483H59.3103V50.4138H62.2759V47.4483Z" fill="#22294F"/>
<path d="M65.2414 47.4483H62.2759V50.4138H65.2414V47.4483Z" fill="#22294F"/>
<path d="M68.2069 48.4483C68.2069 47.896 67.7592 47.4483 67.2069 47.4483H65.2414V50.4138H68.2069V48.4483Z" fill="#22294F"/>
<path d="M74.1379 47.4483H71.1724V50.4138H74.1379V47.4483Z" fill="#22294F"/>
<path d="M11.8621 51.4138C11.8621 50.8615 11.4144 50.4138 10.8621 50.4138H8.89655V53.3793H11.8621V51.4138Z" fill="#22294F"/>
<path d="M17.7931 50.4138H14.8276V53.3793H17.7931V50.4138Z" fill="#22294F"/>
<path d="M29.6552 50.4138H26.6897V53.3793H29.6552V50.4138Z" fill="#22294F"/>
<path d="M32.6207 50.4138H29.6552V53.3793H32.6207V50.4138Z" fill="#22294F"/>
<path d="M38.5517 50.4138H36.5862C36.0339 50.4138 35.5862 50.8615 35.5862 51.4138V53.3793H38.5517V50.4138Z" fill="#22294F"/>
<path d="M41.5172 50.4138H38.5517V53.3793H40.5172C41.0695 53.3793 41.5172 52.9316 41.5172 52.3793V50.4138Z" fill="#22294F"/>
<path d="M50.4138 50.4138H47.4483V52.3793C47.4483 52.9316 47.896 53.3793 48.4483 53.3793H50.4138V50.4138Z" fill="#22294F"/>
<path d="M53.3793 50.4138H50.4138V53.3793H53.3793V50.4138Z" fill="#22294F"/>
<path d="M56.3448 50.4138H53.3793V53.3793H56.3448V50.4138Z" fill="#22294F"/>
<path d="M59.3103 50.4138H56.3448V53.3793H59.3103V50.4138Z" fill="#22294F"/>
<path d="M62.2759 50.4138H59.3103V53.3793H62.2759V50.4138Z" fill="#22294F"/>
<path d="M65.2414 50.4138H62.2759V53.3793H65.2414V50.4138Z" fill="#22294F"/>
<path d="M71.1724 50.4138H68.2069V53.3793H70.1724C70.7247 53.3793 71.1724 52.9316 71.1724 52.3793V50.4138Z" fill="#22294F"/>
<path d="M77.1034 51.4138C77.1034 50.8615 76.6557 50.4138 76.1034 50.4138H74.1379V52.3793C74.1379 52.9316 74.5856 53.3793 75.1379 53.3793H76.1034C76.6557 53.3793 77.1034 52.9316 77.1034 52.3793V51.4138Z" fill="#22294F"/>
<path d="M8.89655 53.3793H6.93103C6.37875 53.3793 5.93103 53.827 5.93103 54.3793V56.3448H8.89655V53.3793Z" fill="#22294F"/>
<path d="M11.8621 53.3793H8.89655V56.3448H11.8621V53.3793Z" fill="#22294F"/>
<path d="M17.7931 53.3793H14.8276V56.3448H17.7931V53.3793Z" fill="#22294F"/>
<path d="M20.7586 54.3793C20.7586 53.827 20.3109 53.3793 19.7586 53.3793H17.7931V56.3448H20.7586V54.3793Z" fill="#22294F"/>
<path d="M26.6897 53.3793H24.7241C24.1719 53.3793 23.7241 53.827 23.7241 54.3793V56.3448H26.6897V53.3793Z" fill="#22294F"/>
<path d="M29.6552 53.3793H26.6897V56.3448H29.6552V53.3793Z" fill="#22294F"/>
<path d="M32.6207 53.3793H29.6552V56.3448H32.6207V53.3793Z" fill="#22294F"/>
<path d="M35.5862 53.3793H32.6207V56.3448H35.5862V53.3793Z" fill="#22294F"/>
<path d="M53.3793 53.3793H50.4138V56.3448H53.3793V53.3793Z" fill="#22294F"/>
<path d="M59.3103 53.3793H56.3448V56.3448H59.3103V53.3793Z" fill="#22294F"/>
<path d="M62.2759 53.3793H59.3103V56.3448H62.2759V53.3793Z" fill="#22294F"/>
<path d="M68.2069 53.3793H65.2414V56.3448H68.2069V53.3793Z" fill="#22294F"/>
<path d="M83.0345 53.3793H81.069C80.5167 53.3793 80.069 53.827 80.069 54.3793V55.3448C80.069 55.8971 80.5167 56.3448 81.069 56.3448H83.0345V53.3793Z" fill="#22294F"/>
<path d="M86 54.3793C86 53.827 85.5523 53.3793 85 53.3793H83.0345V56.3448H85C85.5523 56.3448 86 55.8971 86 55.3448V54.3793Z" fill="#22294F"/>
<path d="M8.89655 56.3448H5.93103V58.3103C5.93103 58.8626 6.37875 59.3103 6.93104 59.3103H7.89655C8.44884 59.3103 8.89655 58.8626 8.89655 58.3103V56.3448Z" fill="#22294F"/>
<path d="M14.8276 56.3448H11.8621V58.3103C11.8621 58.8626 12.3098 59.3103 12.8621 59.3103H14.8276V56.3448Z" fill="#22294F"/>
<path d="M17.7931 56.3448H14.8276V59.3103H17.7931V56.3448Z" fill="#22294F"/>
<path d="M23.7241 56.3448H20.7586V59.3103H23.7241V56.3448Z" fill="#22294F"/>
<path d="M26.6897 56.3448H23.7241V59.3103H26.6897V56.3448Z" fill="#22294F"/>
<path d="M32.6207 56.3448H29.6552V59.3103H32.6207V56.3448Z" fill="#22294F"/>
<path d="M38.5517 56.3448H35.5862V59.3103H38.5517V56.3448Z" fill="#22294F"/>
<path d="M41.5172 56.3448H38.5517V59.3103H41.5172V56.3448Z" fill="#22294F"/>
<path d="M44.4828 56.3448H41.5172V59.3103H44.4828V56.3448Z" fill="#22294F"/>
<path d="M47.4483 57.3448C47.4483 56.7925 47.0006 56.3448 46.4483 56.3448H44.4828V59.3103H47.4483V57.3448Z" fill="#22294F"/>
<path d="M53.3793 56.3448H50.4138V59.3103H53.3793V56.3448Z" fill="#22294F"/>
<path d="M59.3103 56.3448H56.3448V59.3103H59.3103V56.3448Z" fill="#22294F"/>
<path d="M65.2414 56.3448H62.2759V59.3103H65.2414V56.3448Z" fill="#22294F"/>
<path d="M68.2069 56.3448H65.2414V59.3103H68.2069V56.3448Z" fill="#22294F"/>
<path d="M77.1034 57.3448C77.1034 56.7925 76.6557 56.3448 76.1034 56.3448H75.1379C74.5856 56.3448 74.1379 56.7925 74.1379 57.3448V59.3103H77.1034V57.3448Z" fill="#22294F"/>
<path d="M17.7931 59.3103H14.8276V61.2759C14.8276 61.8281 15.2753 62.2759 15.8276 62.2759H17.7931V59.3103Z" fill="#22294F"/>
<path d="M20.7586 59.3103H17.7931V62.2759H19.7586C20.3109 62.2759 20.7586 61.8281 20.7586 61.2759V59.3103Z" fill="#22294F"/>
<path d="M29.6552 59.3103H26.6897V61.2759C26.6897 61.8281 27.1374 62.2759 27.6897 62.2759H29.6552V59.3103Z" fill="#22294F"/>
<path d="M32.6207 59.3103H29.6552V62.2759H32.6207V59.3103Z" fill="#22294F"/>
<path d="M35.5862 59.3103H32.6207V62.2759H35.5862V59.3103Z" fill="#22294F"/>
<path d="M44.4828 59.3103H41.5172V61.2759C41.5172 61.8281 41.965 62.2759 42.5172 62.2759H44.4828V59.3103Z" fill="#22294F"/>
<path d="M50.4138 59.3103H47.4483V62.2759H50.4138V59.3103Z" fill="#22294F"/>
<path d="M56.3448 59.3103H53.3793V61.2759C53.3793 61.8281 53.827 62.2759 54.3793 62.2759H56.3448V59.3103Z" fill="#22294F"/>
<path d="M62.2759 59.3103H59.3103V62.2759H62.2759V59.3103Z" fill="#22294F"/>
<path d="M65.2414 59.3103H62.2759V62.2759H65.2414V59.3103Z" fill="#22294F"/>
<path d="M68.2069 59.3103H65.2414V62.2759H68.2069V59.3103Z" fill="#22294F"/>
<path d="M71.1724 59.3103H68.2069V62.2759H71.1724V59.3103Z" fill="#22294F"/>
<path d="M74.1379 59.3103H71.1724V62.2759H74.1379V59.3103Z" fill="#22294F"/>
<path d="M80.069 59.3103H77.1034V61.2759C77.1034 61.8281 77.5512 62.2759 78.1034 62.2759H80.069V59.3103Z" fill="#22294F"/>
<path d="M83.0345 59.3103H80.069V62.2759H83.0345V59.3103Z" fill="#22294F"/>
<path d="M86 60.3103C86 59.7581 85.5523 59.3103 85 59.3103H83.0345V62.2759H85C85.5523 62.2759 86 61.8281 86 61.2759V60.3103Z" fill="#22294F"/>
<path d="M38.5517 63.2759C38.5517 62.7236 38.104 62.2759 37.5517 62.2759H35.5862V64.2414C35.5862 64.7937 36.0339 65.2414 36.5862 65.2414H38.5517V63.2759Z" fill="#22294F"/>
<path d="M47.4483 62.2759H44.4828V65.2414H47.4483V62.2759Z" fill="#22294F"/>
<path d="M50.4138 62.2759H47.4483V65.2414H49.4138C49.9661 65.2414 50.4138 64.7937 50.4138 64.2414V62.2759Z" fill="#22294F"/>
<path d="M59.3103 62.2759H56.3448V65.2414H59.3103V62.2759Z" fill="#22294F"/>
<path d="M62.2759 62.2759H59.3103V65.2414H62.2759V62.2759Z" fill="#22294F"/>
<path d="M74.1379 62.2759H71.1724V65.2414H74.1379V62.2759Z" fill="#22294F"/>
<path d="M83.0345 62.2759H80.069V64.2414C80.069 64.7937 80.5167 65.2414 81.069 65.2414H83.0345V62.2759Z" fill="#22294F"/>
<path d="M2.96552 65.2414H1C0.447715 65.2414 0 65.6891 0 66.2414V68.2069H2.96552V65.2414Z" fill="#22294F"/>
<path d="M5.93103 65.2414H2.96552V68.2069H5.93103V65.2414Z" fill="#22294F"/>
<path d="M8.89655 65.2414H5.93103V68.2069H8.89655V65.2414Z" fill="#22294F"/>
<path d="M11.8621 65.2414H8.89655V68.2069H11.8621V65.2414Z" fill="#22294F"/>
<path d="M14.8276 65.2414H11.8621V68.2069H14.8276V65.2414Z" fill="#22294F"/>
<path d="M17.7931 65.2414H14.8276V68.2069H17.7931V65.2414Z" fill="#22294F"/>
<path d="M20.7586 66.2414C20.7586 65.6891 20.3109 65.2414 19.7586 65.2414H17.7931V68.2069H20.7586V66.2414Z" fill="#22294F"/>
<path d="M29.6552 65.2414H27.6897C27.1374 65.2414 26.6897 65.6891 26.6897 66.2414V68.2069H29.6552V65.2414Z" fill="#22294F"/>
<path d="M32.6207 66.2414C32.6207 65.6891 32.173 65.2414 31.6207 65.2414H29.6552V68.2069H31.6207C32.173 68.2069 32.6207 67.7592 32.6207 67.2069V66.2414Z" fill="#22294F"/>
<path d="M41.5172 65.2414H38.5517V68.2069H41.5172V65.2414Z" fill="#22294F"/>
<path d="M44.4828 65.2414H41.5172V68.2069H44.4828V65.2414Z" fill="#22294F"/>
<path d="M56.3448 65.2414H54.3793C53.827 65.2414 53.3793 65.6891 53.3793 66.2414V68.2069H56.3448V65.2414Z" fill="#22294F"/>
<path d="M59.3103 65.2414H56.3448V68.2069H59.3103V65.2414Z" fill="#22294F"/>
<path d="M62.2759 65.2414H59.3103V68.2069H62.2759V65.2414Z" fill="#22294F"/>
<path d="M68.2069 66.2414C68.2069 65.6891 67.7592 65.2414 67.2069 65.2414H66.2414C65.6891 65.2414 65.2414 65.6891 65.2414 66.2414V67.2069C65.2414 67.7592 65.6891 68.2069 66.2414 68.2069H67.2069C67.7592 68.2069 68.2069 67.7592 68.2069 67.2069V66.2414Z" fill="#22294F"/>
<path d="M74.1379 65.2414H71.1724V68.2069H74.1379V65.2414Z" fill="#22294F"/>
<path d="M86 66.2414C86 65.6891 85.5523 65.2414 85 65.2414H83.0345V68.2069H86V66.2414Z" fill="#22294F"/>
<path d="M2.96552 68.2069H0V71.1724H2.96552V68.2069Z" fill="#22294F"/>
<path d="M20.7586 68.2069H17.7931V71.1724H20.7586V68.2069Z" fill="#22294F"/>
<path d="M29.6552 68.2069H26.6897V71.1724H29.6552V68.2069Z" fill="#22294F"/>
<path d="M38.5517 68.2069H36.5862C36.0339 68.2069 35.5862 68.6546 35.5862 69.2069V70.1724C35.5862 70.7247 36.0339 71.1724 36.5862 71.1724H38.5517V68.2069Z" fill="#22294F"/>
<path d="M41.5172 68.2069H38.5517V71.1724H41.5172V68.2069Z" fill="#22294F"/>
<path d="M44.4828 68.2069H41.5172V71.1724H44.4828V68.2069Z" fill="#22294F"/>
<path d="M53.3793 68.2069H51.4138C50.8615 68.2069 50.4138 68.6546 50.4138 69.2069V71.1724H53.3793V68.2069Z" fill="#22294F"/>
<path d="M56.3448 68.2069H53.3793V71.1724H56.3448V68.2069Z" fill="#22294F"/>
<path d="M62.2759 68.2069H59.3103V71.1724H62.2759V68.2069Z" fill="#22294F"/>
<path d="M74.1379 68.2069H71.1724V71.1724H74.1379V68.2069Z" fill="#22294F"/>
<path d="M80.069 69.2069C80.069 68.6546 79.6212 68.2069 79.069 68.2069H78.1034C77.5512 68.2069 77.1034 68.6546 77.1034 69.2069V71.1724H80.069V69.2069Z" fill="#22294F"/>
<path d="M86 68.2069H83.0345V71.1724H85C85.5523 71.1724 86 70.7247 86 70.1724V68.2069Z" fill="#22294F"/>
<path d="M2.96552 71.1724H0V74.1379H2.96552V71.1724Z" fill="#22294F"/>
<path d="M8.89655 71.1724H6.93103C6.37875 71.1724 5.93103 71.6201 5.93103 72.1724V74.1379H8.89655V71.1724Z" fill="#22294F"/>
<path d="M11.8621 71.1724H8.89655V74.1379H11.8621V71.1724Z" fill="#22294F"/>
<path d="M14.8276 72.1724C14.8276 71.6201 14.3799 71.1724 13.8276 71.1724H11.8621V74.1379H14.8276V72.1724Z" fill="#22294F"/>
<path d="M20.7586 71.1724H17.7931V74.1379H20.7586V71.1724Z" fill="#22294F"/>
<path d="M29.6552 71.1724H26.6897V74.1379H29.6552V71.1724Z" fill="#22294F"/>
<path d="M32.6207 72.1724C32.6207 71.6201 32.173 71.1724 31.6207 71.1724H29.6552V74.1379H31.6207C32.173 74.1379 32.6207 73.6902 32.6207 73.1379V72.1724Z" fill="#22294F"/>
<path d="M44.4828 71.1724H41.5172V74.1379H44.4828V71.1724Z" fill="#22294F"/>
<path d="M47.4483 71.1724H44.4828V74.1379H47.4483V71.1724Z" fill="#22294F"/>
<path d="M50.4138 71.1724H47.4483V74.1379H50.4138V71.1724Z" fill="#22294F"/>
<path d="M59.3103 71.1724H56.3448V74.1379H59.3103V71.1724Z" fill="#22294F"/>
<path d="M62.2759 71.1724H59.3103V74.1379H62.2759V71.1724Z" fill="#22294F"/>
<path d="M65.2414 71.1724H62.2759V74.1379H65.2414V71.1724Z" fill="#22294F"/>
<path d="M68.2069 71.1724H65.2414V74.1379H68.2069V71.1724Z" fill="#22294F"/>
<path d="M71.1724 71.1724H68.2069V74.1379H71.1724V71.1724Z" fill="#22294F"/>
<path d="M74.1379 71.1724H71.1724V74.1379H74.1379V71.1724Z" fill="#22294F"/>
<path d="M77.1034 71.1724H74.1379V74.1379H77.1034V71.1724Z" fill="#22294F"/>
<path d="M83.0345 71.1724H80.069V73.1379C80.069 73.6902 80.5167 74.1379 81.069 74.1379H82.0345C82.5868 74.1379 83.0345 73.6902 83.0345 73.1379V71.1724Z" fill="#22294F"/>
<path d="M2.96552 74.1379H0V77.1034H2.96552V74.1379Z" fill="#22294F"/>
<path d="M8.89655 74.1379H5.93103V77.1034H8.89655V74.1379Z" fill="#22294F"/>
<path d="M11.8621 74.1379H8.89655V77.1034H11.8621V74.1379Z" fill="#22294F"/>
<path d="M14.8276 74.1379H11.8621V77.1034H14.8276V74.1379Z" fill="#22294F"/>
<path d="M20.7586 74.1379H17.7931V77.1034H20.7586V74.1379Z" fill="#22294F"/>
<path d="M29.6552 74.1379H26.6897V77.1034H29.6552V74.1379Z" fill="#22294F"/>
<path d="M38.5517 74.1379H36.5862C36.0339 74.1379 35.5862 74.5856 35.5862 75.1379V77.1034H38.5517V74.1379Z" fill="#22294F"/>
<path d="M41.5172 74.1379H38.5517V77.1034H41.5172V74.1379Z" fill="#22294F"/>
<path d="M44.4828 74.1379H41.5172V77.1034H44.4828V74.1379Z" fill="#22294F"/>
<path d="M47.4483 74.1379H44.4828V77.1034H47.4483V74.1379Z" fill="#22294F"/>
<path d="M50.4138 74.1379H47.4483V77.1034H50.4138V74.1379Z" fill="#22294F"/>
<path d="M53.3793 75.1379C53.3793 74.5856 52.9316 74.1379 52.3793 74.1379H50.4138V77.1034H53.3793V75.1379Z" fill="#22294F"/>
<path d="M59.3103 74.1379H56.3448V77.1034H59.3103V74.1379Z" fill="#22294F"/>
<path d="M65.2414 74.1379H62.2759V77.1034H65.2414V74.1379Z" fill="#22294F"/>
<path d="M74.1379 74.1379H71.1724V77.1034H74.1379V74.1379Z" fill="#22294F"/>
<path d="M77.1034 74.1379H74.1379V77.1034H77.1034V74.1379Z" fill="#22294F"/>
<path d="M2.96552 77.1034H0V80.069H2.96552V77.1034Z" fill="#22294F"/>
<path d="M8.89655 77.1034H5.93103V79.069C5.93103 79.6212 6.37875 80.069 6.93104 80.069H8.89655V77.1034Z" fill="#22294F"/>
<path d="M11.8621 77.1034H8.89655V80.069H11.8621V77.1034Z" fill="#22294F"/>
<path d="M14.8276 77.1034H11.8621V80.069H13.8276C14.3799 80.069 14.8276 79.6212 14.8276 79.069V77.1034Z" fill="#22294F"/>
<path d="M20.7586 77.1034H17.7931V80.069H20.7586V77.1034Z" fill="#22294F"/>
<path d="M26.6897 77.1034H24.7241C24.1719 77.1034 23.7241 77.5512 23.7241 78.1034V80.069H26.6897V77.1034Z" fill="#22294F"/>
<path d="M29.6552 77.1034H26.6897V80.069H29.6552V77.1034Z" fill="#22294F"/>
<path d="M38.5517 77.1034H35.5862V80.069H38.5517V77.1034Z" fill="#22294F"/>
<path d="M41.5172 77.1034H38.5517V80.069H40.5172C41.0695 80.069 41.5172 79.6212 41.5172 79.069V77.1034Z" fill="#22294F"/>
<path d="M56.3448 77.1034H53.3793V79.069C53.3793 79.6212 53.827 80.069 54.3793 80.069H56.3448V77.1034Z" fill="#22294F"/>
<path d="M59.3103 77.1034H56.3448V80.069H59.3103V77.1034Z" fill="#22294F"/>
<path d="M62.2759 77.1034H59.3103V80.069H62.2759V77.1034Z" fill="#22294F"/>
<path d="M68.2069 78.1034C68.2069 77.5512 67.7592 77.1034 67.2069 77.1034H65.2414V80.069H68.2069V78.1034Z" fill="#22294F"/>
<path d="M74.1379 77.1034H71.1724V80.069H74.1379V77.1034Z" fill="#22294F"/>
<path d="M77.1034 77.1034H74.1379V80.069H77.1034V77.1034Z" fill="#22294F"/>
<path d="M2.96552 80.069H0V83.0345H2.96552V80.069Z" fill="#22294F"/>
<path d="M20.7586 80.069H17.7931V83.0345H20.7586V80.069Z" fill="#22294F"/>
<path d="M26.6897 80.069H23.7241V82.0345C23.7241 82.5868 24.1719 83.0345 24.7241 83.0345H26.6897V80.069Z" fill="#22294F"/>
<path d="M32.6207 81.069C32.6207 80.5167 32.173 80.069 31.6207 80.069H29.6552V83.0345H32.6207V81.069Z" fill="#22294F"/>
<path d="M38.5517 80.069H35.5862V83.0345H38.5517V80.069Z" fill="#22294F"/>
<path d="M59.3103 80.069H56.3448V82.0345C56.3448 82.5868 56.7925 83.0345 57.3448 83.0345H58.3103C58.8626 83.0345 59.3103 82.5868 59.3103 82.0345V80.069Z" fill="#22294F"/>
<path d="M65.2414 80.069H62.2759V83.0345H65.2414V80.069Z" fill="#22294F"/>
<path d="M68.2069 80.069H65.2414V83.0345H68.2069V80.069Z" fill="#22294F"/>
<path d="M71.1724 80.069H68.2069V83.0345H71.1724V80.069Z" fill="#22294F"/>
<path d="M74.1379 80.069H71.1724V83.0345H74.1379V80.069Z" fill="#22294F"/>
<path d="M77.1034 80.069H74.1379V83.0345H77.1034V80.069Z" fill="#22294F"/>
<path d="M83.0345 80.069H81.069C80.5167 80.069 80.069 80.5167 80.069 81.069V83.0345H83.0345V80.069Z" fill="#22294F"/>
<path d="M86 81.069C86 80.5167 85.5523 80.069 85 80.069H83.0345V83.0345H85C85.5523 83.0345 86 82.5868 86 82.0345V81.069Z" fill="#22294F"/>
<path d="M2.96552 83.0345H0V85C0 85.5523 0.447716 86 1 86H2.96552V83.0345Z" fill="#22294F"/>
<path d="M5.93103 83.0345H2.96552V86H5.93103V83.0345Z" fill="#22294F"/>
<path d="M8.89655 83.0345H5.93103V86H8.89655V83.0345Z" fill="#22294F"/>
<path d="M11.8621 83.0345H8.89655V86H11.8621V83.0345Z" fill="#22294F"/>
<path d="M14.8276 83.0345H11.8621V86H14.8276V83.0345Z" fill="#22294F"/>
<path d="M17.7931 83.0345H14.8276V86H17.7931V83.0345Z" fill="#22294F"/>
<path d="M20.7586 83.0345H17.7931V86H19.7586C20.3109 86 20.7586 85.5523 20.7586 85V83.0345Z" fill="#22294F"/>
<path d="M29.6552 83.0345H26.6897V85C26.6897 85.5523 27.1374 86 27.6897 86H28.6552C29.2075 86 29.6552 85.5523 29.6552 85V83.0345Z" fill="#22294F"/>
<path d="M35.5862 83.0345H32.6207V85C32.6207 85.5523 33.0684 86 33.6207 86H35.5862V83.0345Z" fill="#22294F"/>
<path d="M38.5517 83.0345H35.5862V86H38.5517V83.0345Z" fill="#22294F"/>
<path d="M41.5172 83.0345H38.5517V86H41.5172V83.0345Z" fill="#22294F"/>
<path d="M44.4828 84.0345C44.4828 83.4822 44.035 83.0345 43.4828 83.0345H41.5172V86H43.4828C44.035 86 44.4828 85.5523 44.4828 85V84.0345Z" fill="#22294F"/>
<path d="M65.2414 83.0345H62.2759V85C62.2759 85.5523 62.7236 86 63.2759 86H64.2414C64.7937 86 65.2414 85.5523 65.2414 85V83.0345Z" fill="#22294F"/>
<path d="M80.069 83.0345H77.1034V85C77.1034 85.5523 77.5512 86 78.1034 86H79.069C79.6212 86 80.069 85.5523 80.069 85V83.0345Z" fill="#22294F"/>
</svg>
